<mxfile host="app.diagrams.net" modified="2023-12-30T16:21:52.265Z" agent="Mozilla/5.0 (Windows NT 10.0; Win64; x64) AppleWebKit/537.36 (KHTML, like Gecko) Chrome/120.0.0.0 Safari/537.36 Edg/120.0.0.0" etag="CzZOw4KWVZZl6BsKPjZJ" version="22.1.16" type="github">
  <diagram name="Page-1" id="AJSRXk21Zc4KXBRB9rN5">
    <mxGraphModel dx="1349" dy="593" grid="0" gridSize="10" guides="1" tooltips="1" connect="1" arrows="1" fold="1" page="0" pageScale="1" pageWidth="850" pageHeight="1100" math="0" shadow="0">
      <root>
        <mxCell id="0" />
        <mxCell id="1" parent="0" />
        <mxCell id="ghWLd0c86389ldjW-QOa-11" style="edgeStyle=none;curved=1;rounded=0;orthogonalLoop=1;jettySize=auto;html=1;exitX=1;exitY=0.5;exitDx=0;exitDy=0;entryX=0;entryY=0.5;entryDx=0;entryDy=0;fontSize=12;startSize=8;endSize=8;" edge="1" parent="1" source="ghWLd0c86389ldjW-QOa-1" target="ghWLd0c86389ldjW-QOa-8">
          <mxGeometry relative="1" as="geometry" />
        </mxCell>
        <mxCell id="ghWLd0c86389ldjW-QOa-1" value="A CSV file&lt;br&gt;input" style="ellipse;whiteSpace=wrap;html=1;fontSize=16;" vertex="1" parent="1">
          <mxGeometry x="140" y="160" width="120" height="80" as="geometry" />
        </mxCell>
        <mxCell id="ghWLd0c86389ldjW-QOa-10" style="edgeStyle=none;curved=1;rounded=0;orthogonalLoop=1;jettySize=auto;html=1;exitX=1;exitY=0.5;exitDx=0;exitDy=0;entryX=0;entryY=0.5;entryDx=0;entryDy=0;fontSize=12;startSize=8;endSize=8;" edge="1" parent="1" source="ghWLd0c86389ldjW-QOa-2" target="ghWLd0c86389ldjW-QOa-8">
          <mxGeometry relative="1" as="geometry" />
        </mxCell>
        <mxCell id="ghWLd0c86389ldjW-QOa-2" value="Table properties" style="ellipse;whiteSpace=wrap;html=1;fontSize=16;" vertex="1" parent="1">
          <mxGeometry x="143" y="263" width="120" height="80" as="geometry" />
        </mxCell>
        <mxCell id="ghWLd0c86389ldjW-QOa-6" style="edgeStyle=none;curved=1;rounded=0;orthogonalLoop=1;jettySize=auto;html=1;exitX=1;exitY=0.5;exitDx=0;exitDy=0;entryX=0;entryY=0.5;entryDx=0;entryDy=0;fontSize=12;startSize=8;endSize=8;" edge="1" parent="1" source="ghWLd0c86389ldjW-QOa-3" target="ghWLd0c86389ldjW-QOa-1">
          <mxGeometry relative="1" as="geometry" />
        </mxCell>
        <mxCell id="ghWLd0c86389ldjW-QOa-7" style="edgeStyle=none;curved=1;rounded=0;orthogonalLoop=1;jettySize=auto;html=1;exitX=1;exitY=0.5;exitDx=0;exitDy=0;entryX=0;entryY=0.5;entryDx=0;entryDy=0;fontSize=12;startSize=8;endSize=8;" edge="1" parent="1" source="ghWLd0c86389ldjW-QOa-3" target="ghWLd0c86389ldjW-QOa-2">
          <mxGeometry relative="1" as="geometry" />
        </mxCell>
        <mxCell id="ghWLd0c86389ldjW-QOa-3" value="Survey self-collected data" style="rounded=1;whiteSpace=wrap;html=1;fontSize=16;" vertex="1" parent="1">
          <mxGeometry x="-34" y="219" width="120" height="60" as="geometry" />
        </mxCell>
        <mxCell id="ghWLd0c86389ldjW-QOa-13" style="edgeStyle=none;curved=1;rounded=0;orthogonalLoop=1;jettySize=auto;html=1;exitX=1;exitY=0.5;exitDx=0;exitDy=0;entryX=0;entryY=0.5;entryDx=0;entryDy=0;fontSize=12;startSize=8;endSize=8;" edge="1" parent="1" source="ghWLd0c86389ldjW-QOa-8" target="ghWLd0c86389ldjW-QOa-12">
          <mxGeometry relative="1" as="geometry" />
        </mxCell>
        <mxCell id="ghWLd0c86389ldjW-QOa-8" value="CTGAN" style="rounded=1;whiteSpace=wrap;html=1;fontSize=16;" vertex="1" parent="1">
          <mxGeometry x="310" y="219" width="82" height="44" as="geometry" />
        </mxCell>
        <mxCell id="ghWLd0c86389ldjW-QOa-22" style="edgeStyle=none;curved=1;rounded=0;orthogonalLoop=1;jettySize=auto;html=1;exitX=1;exitY=0.5;exitDx=0;exitDy=0;entryX=0;entryY=0.5;entryDx=0;entryDy=0;fontSize=12;startSize=8;endSize=8;" edge="1" parent="1" source="ghWLd0c86389ldjW-QOa-12" target="ghWLd0c86389ldjW-QOa-20">
          <mxGeometry relative="1" as="geometry" />
        </mxCell>
        <mxCell id="ghWLd0c86389ldjW-QOa-12" value="Multi-CSV file output" style="ellipse;whiteSpace=wrap;html=1;fontSize=16;" vertex="1" parent="1">
          <mxGeometry x="430" y="201" width="120" height="80" as="geometry" />
        </mxCell>
        <mxCell id="ghWLd0c86389ldjW-QOa-14" value="M" style="text;html=1;align=center;verticalAlign=middle;resizable=0;points=[];autosize=1;strokeColor=none;fillColor=none;fontSize=16;" vertex="1" parent="1">
          <mxGeometry x="92" y="199" width="31" height="31" as="geometry" />
        </mxCell>
        <mxCell id="ghWLd0c86389ldjW-QOa-16" value="M" style="text;html=1;align=center;verticalAlign=middle;resizable=0;points=[];autosize=1;strokeColor=none;fillColor=none;fontSize=16;" vertex="1" parent="1">
          <mxGeometry x="92" y="268" width="31" height="31" as="geometry" />
        </mxCell>
        <mxCell id="ghWLd0c86389ldjW-QOa-17" value="1" style="text;html=1;align=center;verticalAlign=middle;resizable=0;points=[];autosize=1;strokeColor=none;fillColor=none;fontSize=16;" vertex="1" parent="1">
          <mxGeometry x="263" y="188" width="27" height="31" as="geometry" />
        </mxCell>
        <mxCell id="ghWLd0c86389ldjW-QOa-18" value="1" style="text;html=1;align=center;verticalAlign=middle;resizable=0;points=[];autosize=1;strokeColor=none;fillColor=none;fontSize=16;" vertex="1" parent="1">
          <mxGeometry x="269" y="275" width="27" height="31" as="geometry" />
        </mxCell>
        <mxCell id="ghWLd0c86389ldjW-QOa-19" value="M" style="text;html=1;align=center;verticalAlign=middle;resizable=0;points=[];autosize=1;strokeColor=none;fillColor=none;fontSize=16;" vertex="1" parent="1">
          <mxGeometry x="390" y="216" width="31" height="31" as="geometry" />
        </mxCell>
        <mxCell id="ghWLd0c86389ldjW-QOa-24" style="edgeStyle=none;curved=1;rounded=0;orthogonalLoop=1;jettySize=auto;html=1;exitX=1;exitY=0.5;exitDx=0;exitDy=0;entryX=0;entryY=0.5;entryDx=0;entryDy=0;fontSize=12;startSize=8;endSize=8;" edge="1" parent="1" source="ghWLd0c86389ldjW-QOa-20" target="ghWLd0c86389ldjW-QOa-23">
          <mxGeometry relative="1" as="geometry" />
        </mxCell>
        <mxCell id="ghWLd0c86389ldjW-QOa-20" value="Draw image and create ground truth&amp;nbsp;" style="rounded=1;whiteSpace=wrap;html=1;fontSize=16;" vertex="1" parent="1">
          <mxGeometry x="593" y="211" width="146" height="60" as="geometry" />
        </mxCell>
        <mxCell id="ghWLd0c86389ldjW-QOa-23" value="Multi-images and ground truth" style="ellipse;whiteSpace=wrap;html=1;fontSize=16;" vertex="1" parent="1">
          <mxGeometry x="782" y="197.5" width="137" height="87" as="geometry" />
        </mxCell>
        <mxCell id="ghWLd0c86389ldjW-QOa-25" value="M" style="text;html=1;align=center;verticalAlign=middle;resizable=0;points=[];autosize=1;strokeColor=none;fillColor=none;fontSize=16;" vertex="1" parent="1">
          <mxGeometry x="553" y="216" width="31" height="31" as="geometry" />
        </mxCell>
        <mxCell id="ghWLd0c86389ldjW-QOa-26" value="M" style="text;html=1;align=center;verticalAlign=middle;resizable=0;points=[];autosize=1;strokeColor=none;fillColor=none;fontSize=16;" vertex="1" parent="1">
          <mxGeometry x="739" y="216" width="31" height="31" as="geometry" />
        </mxCell>
      </root>
    </mxGraphModel>
  </diagram>
</mxfile>
